<svg xmlns="http://www.w3.org/2000/svg" viewBox="0 0 991.57 290.28"><defs><style>.a{fill:#fff;}</style></defs><title>22자산 1</title><path class="a" d="M499.69,237.16V217.64a12.47,12.47,0,0,0-2.56-8.16,9.14,9.14,0,0,0-7.24-3,13.48,13.48,0,0,0-7,1.83,15.16,15.16,0,0,0-4.13,3.64V207.2h-12v4.48h4.51v25.46H466.8v4.41h16.44v-4.41h-4.47V217.21a18.73,18.73,0,0,1,4.47-3.63,10.52,10.52,0,0,1,4.6-1.21c1.8,0,2.86.48,3.41,1.24s1,2.48,1,5v18.56h-4.46v4.41h16.42v-4.41h-4.49Z"/><path class="a" d="M562,241.57v-4.42h4.46V218.6c0-2.54-.37-4.22-1-5a4.11,4.11,0,0,0-3.43-1.24,10.1,10.1,0,0,0-4.59,1.24,20.38,20.38,0,0,0-4.49,3.59v19.95h4.49v4.42H541.12v-4.42h4.49V211.69h-4.49v-4.47H553v4.68a15.48,15.48,0,0,1,4.13-3.59,13.39,13.39,0,0,1,7-1.86,8.93,8.93,0,0,1,7.22,3,12.3,12.3,0,0,1,2.59,8.16v19.51h4.49v4.42Z"/><path class="a" d="M601,237.74a24.81,24.81,0,0,1-4.68,3.29,12.84,12.84,0,0,1-5.53,1.35,10.33,10.33,0,0,1-7.42-2.86,9.36,9.36,0,0,1-3-7.15,9.8,9.8,0,0,1,4.76-8.87c3.15-1.9,7.69-2.81,13.67-2.81l.48,0v-3.29c-.11-4.62-1.68-6.36-5.36-6.48A9,9,0,0,0,588,213.2l-.42,3.67h-4.72v-7.4l.42-.18a30.37,30.37,0,0,1,12-2.84c7.35,0,11.41,3.7,11.45,10.61v14.67c0,4.11,1,5.42,2.34,5.43a4.11,4.11,0,0,0,1.21-.2l.81-.23.59,4.63-.55.17a12.38,12.38,0,0,1-4.09.85H607c-2.93,0-5-1.73-5.92-4.64m-10.43-11a5.7,5.7,0,0,0-1,8.54,4.82,4.82,0,0,0,3.65,1.49,6.83,6.83,0,0,0,2.78-.65,13,13,0,0,0,3.18-1.83v-9.2h-.68c-3.63,0-6.3.61-8,1.64"/><path class="a" d="M653.75,241.57v-4.42h4.49V218a7.46,7.46,0,0,0-1-4.36,3.15,3.15,0,0,0-2.73-1.27,9.65,9.65,0,0,0-4.39,1.21,22.37,22.37,0,0,0-4.65,3.63v19.95H650v4.42H633.56v-4.42h4.5V218a8,8,0,0,0-1-4.36,3.27,3.27,0,0,0-2.79-1.27,10.21,10.21,0,0,0-4.39,1.21,23.37,23.37,0,0,0-4.66,3.63v19.95h4.54v4.42H613.33v-4.42h4.53V211.66h-4.53v-4.44h11.94v4.87a19.48,19.48,0,0,1,4.36-3.78,11.62,11.62,0,0,1,6.38-1.86,9.19,9.19,0,0,1,6.1,1.9,8.73,8.73,0,0,1,2.75,4.53,19.72,19.72,0,0,1,5-4.57,11.64,11.64,0,0,1,6.32-1.86,9.05,9.05,0,0,1,7,2.84,11,11,0,0,1,2.55,7.64v20.23h4.53v4.42H653.75Z"/><path class="a" d="M706.39,242.73c-5.7,0-10.11-1.42-12.87-4.56s-4.1-7.73-4.1-14V199.72h-4.49v-4.46h16.43v4.46h-4.1v23.16a47.63,47.63,0,0,0,.52,8.35,8.85,8.85,0,0,0,2,4.08,9.08,9.08,0,0,0,7.2,3,9.48,9.48,0,0,0,7.14-2.87c1.64-1.56,2.67-5.34,2.64-11.23V199.72h-4.47v-4.46h14.93v4.46h-4.49v22.82a43.74,43.74,0,0,1-.74,9.28,13.76,13.76,0,0,1-2.93,5.77c-2.78,3.46-7,5.14-12.62,5.14h0Z"/><path class="a" d="M749.89,241.57v-4.42h4.49V218.6c0-2.54-.43-4.22-1-5s-1.6-1.19-3.4-1.19a10,10,0,0,0-4.58,1.19,20.18,20.18,0,0,0-4.49,3.59v19.95h4.49v4.42H729v-4.42h4.51V211.66H729v-4.44h11.93v4.68a16.24,16.24,0,0,1,4.17-3.63,13.69,13.69,0,0,1,7-1.79,9.05,9.05,0,0,1,7.21,3,12.34,12.34,0,0,1,2.6,8.16l0,19.51h4.51v4.42H749.89Z"/><path class="a" d="M780.47,207.22v29.92H785v4.43H768.5v-4.43H773V211.66h-4.5v-4.44h12Zm0-4.55H773v-7.41h7.47Z"/><path class="a" d="M907.94,237.15h4.53V211.67h-4.53v-4.46h12v29.94h4.54v4.43H907.94Zm12-34.48h-7.43v-7.41h7.43Z"/><polygon class="a" points="817.5 211.66 803.95 241.96 800.01 241.96 787.42 211.66 784.54 211.66 784.54 207.22 799.61 207.22 799.61 211.66 795.46 211.66 803.74 231.55 812.59 211.66 808.5 211.66 808.5 207.22 820.36 207.22 820.36 211.66 817.5 211.66"/><path class="a" d="M852,241.57v-4.42h4.51V211.66H852v-4.44h12v4.5a12.12,12.12,0,0,1,10-5.24,6.66,6.66,0,0,1,2.22.4l.48.19v9.45h-5.16v-3.37h-.26c-2.23,0-4.65,1.33-7.28,4.07v19.95h4.5v4.42Z"/><path class="a" d="M879.62,239.69V231.2h5.18v4.1a17.37,17.37,0,0,0,3.53,1.93,8.38,8.38,0,0,0,3.4.72,6.52,6.52,0,0,0,4.2-1.33,4.21,4.21,0,0,0,1.58-3.34c0-1.95-1.39-3.57-4.79-4.89l-3-1.22c-6.4-2.41-9.88-6.05-9.88-10.77a8.87,8.87,0,0,1,3.48-7.14,12.81,12.81,0,0,1,8.54-2.79,30,30,0,0,1,5.09.46,27.59,27.59,0,0,1,5.2,1.46l.51.13v8.39h-5.27v-4.1a10.25,10.25,0,0,0-2.73-1.41,8.82,8.82,0,0,0-2.9-.52,4.9,4.9,0,0,0-3.47,1.26,3.79,3.79,0,0,0-1.39,3,3.37,3.37,0,0,0,1.21,2.71,21.09,21.09,0,0,0,5.42,2.83l2.81,1.18a18.88,18.88,0,0,1,6.63,4.09,8.24,8.24,0,0,1,2,5.67,9.63,9.63,0,0,1-3.72,7.77,15.19,15.19,0,0,1-9.63,2.92,32.11,32.11,0,0,1-5.88-.6A31.39,31.39,0,0,1,880,239.9Z"/><path class="a" d="M932.22,239.44c-1.75-2-2.56-5-2.56-8.81v-19h-4.49v-4.44h4.49V201.4l7.44-1.83v7.65h8.45v4.44h-8.45v19.72a8.41,8.41,0,0,0,1.1,4.73,3.35,3.35,0,0,0,3,1.42,8,8,0,0,0,3.3-.85l1-.49v5l-.44.18a12.76,12.76,0,0,1-4.84,1h0c-3.52,0-6.22-1-8-2.92"/><polygon class="a" points="952.46 253.59 962.22 240.8 950.08 211.66 947.25 211.66 947.25 207.22 962.32 207.22 962.32 211.66 958.21 211.66 966.43 231.51 975.28 211.66 971.19 211.66 971.19 207.22 983.07 207.22 983.07 211.66 980.15 211.66 961.49 253.59 952.46 253.59"/><path class="a" d="M424.95,222.51c0-5-1.1-9-3.32-11.81a11.8,11.8,0,0,0-9.65-4.25,13.91,13.91,0,0,0-11,5c-2.79,3.27-4.21,7.52-4.21,12.64a19,19,0,0,0,4.72,13.18,16.08,16.08,0,0,0,12.23,5.11h0a29.29,29.29,0,0,0,10.75-2.31l.47-.17v-6.24l-1.05.6a19.24,19.24,0,0,1-9.29,2.55,8.69,8.69,0,0,1-7.36-3.4c-1.68-2.17-2.6-5.15-2.67-9h20.37v-1.86Zm-18-9.32a5.26,5.26,0,0,1,4.68-2.32c3.58,0,5.41,2.6,5.44,9v0H405c.29-3,.95-5.29,2-6.71"/><path class="a" d="M459.49,237.15V207.21H447.57v4.46H452v20a17.85,17.85,0,0,1-4.49,3.52,9.3,9.3,0,0,1-4.54,1.27,4.07,4.07,0,0,1-3.44-1.27c-.59-.79-1-2.49-1-5v-23h-12v4.46h4.5v19.49a12.07,12.07,0,0,0,2.6,8.14,9,9,0,0,0,7.14,3.08h.06a13.51,13.51,0,0,0,7-1.86,14.63,14.63,0,0,0,4.13-3.61v4.66h12v-4.43h-4.5Z"/><path class="a" d="M533.68,236.59c-2.12-1.18-5.63-1.64-10.75-1.64h-5.23c-2.41-.07-2.93-.62-2.93-1.34a2.07,2.07,0,0,1,.52-1.36,7.32,7.32,0,0,1,1.5-1.45,14.15,14.15,0,0,0,3.19.35,13.27,13.27,0,0,0,9.49-3.47,11.83,11.83,0,0,0,3.66-9,13.19,13.19,0,0,0-1.9-6.76l5.3,1,2.6-6.12-12.77,1a8.12,8.12,0,0,0-2.78-1,16.12,16.12,0,0,0-3.44-.33,13.45,13.45,0,0,0-9.5,3.34,11.82,11.82,0,0,0-3.62,9,12.15,12.15,0,0,0,1.84,6.8,10.4,10.4,0,0,0,4,3.79,13.47,13.47,0,0,0-3.25,2.4,4.89,4.89,0,0,0-1.69,3.49,5,5,0,0,0,2.56,4.3,14.47,14.47,0,0,0-3.87,2.71,6.06,6.06,0,0,0-1.83,4.28c0,2.5,1.64,4.47,4.53,5.78a26.76,26.76,0,0,0,11.23,2c4.79,0,8.75-1,11.78-3A9.62,9.62,0,0,0,537,243.1c0-3-1.06-5.29-3.29-6.51m-17.85-24.1a4.66,4.66,0,0,1,4.14-2,5,5,0,0,1,4.26,1.95c1,1.28,1.51,3.34,1.51,6.24s-.55,5.11-1.51,6.38a4.42,4.42,0,0,1-4.1,1.95,4.76,4.76,0,0,1-4.24-1.88c-.95-1.28-1.46-3.32-1.46-6.23s.52-5.1,1.39-6.43m11.34,35.73a12.89,12.89,0,0,1-6.91,1.69c-2.85,0-5-.36-6.22-1.14a3.25,3.25,0,0,1-1.82-3.14,4.79,4.79,0,0,1,.66-2.54,8.21,8.21,0,0,1,1.94-2.27h9.25a8.5,8.5,0,0,1,4.37.89,2.5,2.5,0,0,1,1.23,2.31,4.75,4.75,0,0,1-2.48,4.18"/><path class="a" d="M848.86,222.53c0-5-1.1-9-3.3-11.82a11.85,11.85,0,0,0-9.66-4.23,13.85,13.85,0,0,0-11,5,18.83,18.83,0,0,0-4.24,12.62c0,5.29,1.57,9.75,4.72,13.16a16.11,16.11,0,0,0,12.24,5.12h.08a29.46,29.46,0,0,0,10.72-2.29l.45-.17v-6.24l-1.06.6a19.18,19.18,0,0,1-9.3,2.52,8.68,8.68,0,0,1-7.35-3.37c-1.68-2.17-2.6-5.14-2.71-9h20.43Zm-7.8-2.62H828.91a13.53,13.53,0,0,1,2-6.71,5.36,5.36,0,0,1,4.68-2.3c3.58,0,5.41,2.58,5.48,9v0Z"/><polygon class="a" points="388.71 195.26 388.71 199.68 392.65 199.68 383.35 219.07 374.21 199.68 378.13 199.68 378.13 195.26 361.37 195.26 361.37 199.68 365.17 199.68 377.86 225.58 377.86 237.23 373.37 237.23 373.37 241.57 390.16 241.57 390.16 237.23 385.69 237.23 385.69 224.96 398.25 199.68 401.8 199.68 401.8 195.26 388.71 195.26"/><path class="a" d="M959.33,143h20.12V54H887.28V65.71h72Zm-11.44,10.72V98.53H922.23V102c3,0,6,1.32,6,7.33v44.36h-11.6V98.53H891V102c3,0,6,1.32,6,7.33v44.36H879.8v11.53H991.57V153.71H947.89Z"/><path class="a" d="M586.72,70.44V48.64h-26.4v3.49c3,0,6,1.39,6,7.32V92.81H508.91V51.74H482.32v3.47c3,0,6,1.34,6,7.35V91.13c0,8.17,5.49,13.31,13.94,13.31h64.06v8.31h20.44V82h18.23V70.44H586.72Zm-85.38,52.9c3,0,6,1.39,6,7.35v29.74c0,8.18,5.63,13.61,14.2,13.61h65.21V119.85H501.34Zm26.42,8h38.53v31H527.75Z"/><path class="a" d="M761.15,138.11h69.52V174h20.45V126.63h-90v11.48Zm90-61.68V48.64H824.7v3.51c3,0,6,1.38,6,7.3v58.84h20.45V88.15h18.26V76.43H851.12ZM436.29,52.15c3,0,6,1.38,6,7.3v3.3H416c-5.84-8.53-16.09-14.12-28.79-14.12-20.27,0-34.28,14.23-34.28,31.74s14,31.87,34.28,31.87c12.44,0,22.49-5.44,28.42-13.67h26.7v14.14h20.45V48.64H436.29v3.51Zm-49.12,48.62c-9,0-14.09-9.77-14.09-20.28s5.2-20.07,14.09-20.07,14.08,9.63,14.08,20.07-5,20.28-14.08,20.28m55.13-13.7H420.71a31.49,31.49,0,0,0,.7-6.69,33.21,33.21,0,0,0-.6-6.16h21.48V87.07ZM784,117.88c18.65,0,31.56-12.9,31.56-28.73A27.42,27.42,0,0,0,808.72,71h11.22V59.78H794v-15H767.62v3.44c3,0,6,1.39,6,7.39v4.14H747.69V71h11.49a27.21,27.21,0,0,0-6.81,18.14c0,15.83,13,28.73,31.58,28.73m0-45.51c7.86,0,12.15,7.41,12.15,16.93S792,106.37,784,106.37s-12.15-7.5-12.15-17.07S776,72.37,784,72.37M423.35,115.28c-23.35,0-38.37,14.24-38.37,31.8S400,179,423.35,179s38.37-14.4,38.37-31.95-15.1-31.8-38.37-31.8m0,52.25c-10.32,0-17.78-8.92-17.78-20.31s7.69-20.12,17.78-20.12,17.74,8.77,17.74,20.12-7.46,20.31-17.74,20.31"/><path class="a" d="M700.35,48.64v3.49c3,0,6,1.39,6,7.32V82.69H695.27v-34h-24.8v3.49c3,0,5.93,1.39,5.93,7.32v60.84H640.65V65.71h23.63V54h-49.7v3.5c3,0,6,1.37,6,7.34v53.72c0,8.17,5.44,13.32,14,13.32H676.4V174h18.87V94.2h11.06V174h19.35V48.64Z"/><path class="a" d="M80.05,203.83a26,26,0,0,1-9.9-18.18,10.86,10.86,0,0,0,2,21.53,10.72,10.72,0,0,0,7.92-3.35m167.89-70.32c-8.26,5.08-15.72,12.94-21.51,18.63-26.79,26.29-28,2-28,2s-3.74,4.3-23.17,7.22c-4.61.77-10.34,1.49-9.8,7.21.54,6.61,9.82,9.13,15.58,8.32a18.81,18.81,0,0,0,13.31-9.61c-.54,7.32-12.49,25.36-31.87,14a15.19,15.19,0,0,1-6.34-18c2.62-7,11.46-9.82,18.22-10.25,20.07-1.15,27.25-8.2,27.25-8.2s-2.28,10,5.41,9.73c3.8-.15,7.31-1.91,10.34-4,5.23-3.5,9.7-8,14.78-11.63a100,100,0,0,1,15.37-8.84,92.2,92.2,0,0,0-2-9.91c-1.37.63-2.82,1.37-4.34,2.2-5.21,2.8-11,6.09-16,9-16,9.65-15.64-1.21-15.47-3.48,0,0-18.22,17.32-36.71,1.82a57.8,57.8,0,0,1-9.1-9.42c-.47-.7-.44-.81.53-1.14,3.83-1.46,7.89-1.62,14.34-.47,11.09,1.93,17.79-2,23.93-6.55,14.92-10.91,30.48-7.07,33.57-6.48,0,0-18.31-8.09-32.19-1-17.85,9.11-35.45,3.4-37.78,2.76-1.07-.32-1.15-.59.9-1.5a29.9,29.9,0,0,1,7.22-2.43,11.07,11.07,0,0,1,4.9.15,40.7,40.7,0,0,0,17.19-.47c5.58-1.51,10.47-3.65,15.83-3.7,11-.17,21.51,3.27,28.36,7.89-10.92-1.88-20.33-1.4-29.41,4.63-5.42,3.6-8.63,6.8-14.71,9.87-6.47,3.26-12.43,4.16-19.5,2.48-.51-.1-.66,0,0,.65,3.31,3.35,17.08,13.09,35.13-4.23-.33,4.2-.36,9,15.21,3,5.36-2.12,11.5-4.49,17.36-6.5A103.47,103.47,0,1,0,53.27,192.72a17.85,17.85,0,0,1,17.56-15.57,26.1,26.1,0,0,1,37.52-16.94c.57-.51,1.13-1,1.78-1.53,2.59-2.08,4.53-4.39,7.76-5.58s7.54-1.86,11-2.49a3,3,0,0,0,2.42-1.81c1-2.94,2.38-6.93,3.42-9.22a6.62,6.62,0,0,1,2.32-2.87,24.13,24.13,0,0,1-10.47-4.78,3.62,3.62,0,0,0-2.42-.91c-1.92.13-5.45.35-8.12.72-2.23.32-5.8,3.9-8.39,5.94-1.86,1.48-2,1.51-4.4,1.48-5.94,0-12.85,3.09-13.28,3.22-.68.24-.89-1.15-1-2.35a7,7,0,0,1,.38-3.17c.64-.67,8.1-2.45,14.37-2.58,1.31,0,3.64-1.88,6.48-4,2.21-1.68,4.32-3.69,6.27-3.8l9-1.56a2.37,2.37,0,0,1,2.09.88,15.88,15.88,0,0,0,8.36,5.42,20.34,20.34,0,0,0,19.89-5.49c.11-.07.28-.29.54-.17s.45.18.64.24.12.13.12.25a24.66,24.66,0,0,1-2.92,3.64c-3.6,4.09-8.43,5.76-12.93,10.09-3.49,3.38-4.73,7.4-6.28,12-.67,2-1.28,2.72-2.75,3-4.57.72-8.76,2.41-11.89,5.79-2.31,2.5-3.45,3.83-4.83,5.36a24.94,24.94,0,0,1,3.66,5.23c.47,0,.9-.07,1.31-.07,7.11,0,14,2.75,18.44,7.4a19.06,19.06,0,0,1,5.47,14.37,19.91,19.91,0,0,1-15.86,18.61l-1.3.29,1.07.77c7.15,5.52,17.05,5,25.1,2.06,13.95-5,26.63-13.71,39.28-21.28,1.11-.65,24.38-15.62,43.63-15.62a45,45,0,0,1,6.83.52,103.59,103.59,0,0,0,5.42-33,101.49,101.49,0,0,0-.67-11.63m-88.07-64c15.74,8.5,30.85,4.92,34.08,3-13.88,8.51-28.31,3.35-41.24-2.22-16.24-7.33-24.23-6.91-25.56-6.93-8.31-.08-17.13,2.28-22.87,9.18-2.54,3.11-2.39,8.39-.58,13.38,2.88,8,.42,11.82-7,14.64-7.69,3-22,5.08-28.73,9.9-5.87,4.21-8.49,9.83-6.88,16.9,2,8.71,13.91,12.42,21.5,11-10.18,1.93-24.5.07-26.8-12C53.31,113.9,61.12,108,74.38,103.59c13.89-4.64,36.22-3.31,26-21.75-3.12-5.65-.25-11.69,5-16.11,8.43-7.09,22.63-7.64,30.36-6,0,0,9.05,1.81,24.11,9.77m-24.79,37.21a15.71,15.71,0,0,0-4.53,1.71,14.07,14.07,0,0,1-6,2.52,2.18,2.18,0,0,1-2.18-.77c-.51-.82-.61-1.93-1.24-2.57-.45-.38-.41-.81.65-.82s4.05-.13,5.82-.27c3.23-.2,5.32-.5,7.37-.79,2.33-.32,1.13.69.07,1m-5.32-6.33a61.24,61.24,0,0,1-11.18.85,5.77,5.77,0,0,0-4.16,1.48c-3.91,2.77-12.89,9.7-19.68,12.77a51.24,51.24,0,0,1-12.42,3.77c-.8.14-1.21.38-.85,1.15a55.22,55.22,0,0,1,2.79,7.85c8.89-1.93,14.55-2.23,16.76-2,.92.05,1.14.49,1.14.49s.23.4.47.74.08.62-.39.68c-2.63.2-11.36,1.14-18.26,4.74-.57.37-2.6.12-2.74-.54-.57-2.16-.54-3.93-2-6.51-3.33-6.86-5-7.5-4.42-8.59.25-.47,1.16-2.23,2.72-2.4a126.75,126.75,0,0,0,14.7-3.49,68.83,68.83,0,0,0,21.46-14.7c.77-.79,2-1.19,4.26-1.14,3.16.22,7.17.57,8.78-.1.85-4-1.8-7.93-1.93-10.32,0-.79,1.81-2.64,2.39-2.74,3.22-.53,8.38.64,13.36.22a38.74,38.74,0,0,0,9.93-2.4.48.48,0,0,1,.57.15,1,1,0,0,1,.24.35c.23.32.1.49-.13.82a19.77,19.77,0,0,1-4.3,3.78c-3.82,2.77-9.23,2.84-12.22,3.18a1,1,0,0,0-.87.84c-.17.74,1,4.22.6,5.4,10.34-1.95,16.31-4.29,26-8.71.64-.29,1-.54,1.31-.25.4.45.1.81-2.52,3.1-1.79,1.51-12,8.19-29.44,11.5m25.3,2a29.41,29.41,0,0,1-3.86-2.75c-.63-.59-.74-1.16.53-1.39,5.81-1.06,10.53-2,15.29-4,4.45-1.91,9-4.26,13.9-5.15a.9.9,0,0,1,.2,0c4.12-.74,7.71.25,11.6,1.31,2,.52,4.57,1.29,6.62,1.66s6.67,1,8.91.55c-5.43,2-13.44.62-18.55-.14-5.47-.86-9.16.76-14.43,3.54a97.28,97.28,0,0,1-14.2,6.09c-3.42,1.14-4.36,1.26-6,.32M90.43,201.45A35.56,35.56,0,0,1,92,192.28a30.7,30.7,0,0,1,16.86-18.66,17.21,17.21,0,1,0-18.42,27.83m99,6.49c-16.65,13.65-31.79,20.57-45,20.57a35.39,35.39,0,0,1-8.5-1c-22.12-5.44-21.39-20-21.35-20.6.1-10.3,6.81-10.82,8.19-10.82a5.79,5.79,0,0,1,4.23,1.76,5.8,5.8,0,0,1-2.27,9.57s-.66.25-.52.82.85.37.85.37a12.29,12.29,0,0,0,10.07-12c.08-7.28-5.9-11.21-11.8-11.87a16.16,16.16,0,0,0-2.22-.13c-7.11,0-13.29,3.79-16.92,10.35a27.35,27.35,0,0,0-2.75,14.23C102.54,229,119,241.93,134.75,246a67.67,67.67,0,0,0,16.86,2.27c1.14,0,2.25-.05,3.36-.1A103.51,103.51,0,0,0,242.58,180c-18.93.37-37.57,15.16-51.33,26.51Zm-91.1,20.41a46.28,46.28,0,0,1-7.52-19.47,28.42,28.42,0,0,1-6.3-2.21,17.91,17.91,0,0,1-13.72,6.21,19.64,19.64,0,0,1-4.34-.61,103.76,103.76,0,0,0,51.09,32.59,49.73,49.73,0,0,1-19.2-16.51"/><path class="a" d="M0,145.14A145.14,145.14,0,1,1,145.12,290.28,145.12,145.12,0,0,1,0,145.14M45.34,45.37A141,141,0,1,0,145.12,4,140.59,140.59,0,0,0,45.34,45.37"/><polygon class="a" points="53.2 210.59 37.12 221.85 36.02 220.29 52.09 209.02 53.2 210.59"/><polygon class="a" points="238.18 209.02 254.28 220.29 253.15 221.85 237.08 210.59 238.18 209.02"/><polygon class="a" points="12.63 163.94 17.09 163.03 17.15 163.4 17.56 165.47 17.18 165.53 15.37 165.92 16.73 172.72 24.47 171.17 23.53 166.57 21.68 166.94 21.6 166.56 21.21 164.69 27.16 163.5 27.25 163.9 27.63 165.77 27.24 165.87 25.75 166.15 26.71 170.74 35 169.04 33.49 161.58 31.11 162.07 31.03 161.69 30.61 159.66 35.08 158.77 35.41 158.68 38.66 174.69 38.25 174.76 36.41 175.15 36.33 174.75 35.98 172.92 17.52 176.62 17.95 178.84 17.56 178.93 15.73 179.31 12.63 163.94"/><path class="a" d="M11.57,148.65l.4,0h1.88v2.06l11.68-.1a21.71,21.71,0,0,0,4.19-.32,4.47,4.47,0,0,0,2-1,4.62,4.62,0,0,0,1.44-3.59s0,0,0,0a4.78,4.78,0,0,0-1.41-3.59c-.81-.79-2.62-1.29-5.47-1.28a.43.43,0,0,0-.17,0l-12.34.1v2.24l-.37,0-1.91,0,0-7.59h.37l1.87,0v.4l0,1.86,11.5-.06a3.67,3.67,0,0,1,.45,0,18.19,18.19,0,0,1,4.22.33,7,7,0,0,1,2.93,1.44c1.73,1.38,2.62,3.56,2.62,6.4v.15c0,2.79-.72,5-2.24,6.32s-3.89,2.1-7.06,2.13l-12.28.1v2.28H11.63Z"/><polygon class="a" points="34.59 134.03 32.74 133.68 32.81 133.31 33.16 131.44 14.72 127.75 14.27 129.97 13.88 129.9 12.02 129.55 13.09 124.29 32.35 116.54 17.56 113.57 17.09 115.82 16.73 115.72 14.87 115.37 16.31 108.14 16.71 108.18 18.55 108.57 18.48 108.96 18.12 110.78 39.1 114.98 38.5 117.98 38.44 118.19 19.27 125.74 33.74 128.64 34.17 126.41 34.57 126.51 36.41 126.88 34.98 134.11 34.59 134.03"/><path class="a" d="M30.21,88.55l-2.28-.76a12.59,12.59,0,0,0-2,1.79,8.25,8.25,0,0,0-1.31,2.15A6.41,6.41,0,0,0,24,94.37a6.87,6.87,0,0,0,1,3.37,12.06,12.06,0,0,0,6,4.8,11.63,11.63,0,0,0,4.75,1.11,8.49,8.49,0,0,0,2.62-.4,7.43,7.43,0,0,0,4.79-4.43,11.28,11.28,0,0,0,.68-2.49L38.16,93.9l-1,2.44-.33-.17-1.71-.75,3.17-7.47.37.15,1.73.74-.13.36-.45,1.06,7,3-.06.32a30.59,30.59,0,0,1-1.85,7.23A10.77,10.77,0,0,1,38.53,107a10.62,10.62,0,0,1-3.59.6,14.92,14.92,0,0,1-5.84-1.31c-3.46-1.48-5.83-3.56-7-6.21a9.27,9.27,0,0,1-.91-4,12.15,12.15,0,0,1,1.07-4.73A27,27,0,0,1,24,87.94a38,38,0,0,1,2.36-3.35l.21-.23,4.58,2Z"/><polygon class="a" points="38.1 65.1 42.36 59.09 44.24 60.38 42.95 62.23 60.38 74.62 58.64 77.1 58.5 77.29 37.93 76.4 49.94 84.92 51.26 83.09 51.59 83.31 53.13 84.41 48.83 90.41 48.53 90.19 46.99 89.1 47.22 88.8 48.32 87.25 32.93 76.36 31.63 78.21 29.77 76.9 32.86 72.58 53.59 73.3 41.28 64.59 39.98 66.43 38.1 65.1"/><path class="a" d="M53.3,47.63l21,9.74,1-1L76.89,58l-5.51,5.24-1.59-1.67,1.37-1.3-4.36-2-6.36,6,1.83,4.46,1.52-1.44L65.35,69l-4.47,4.26-1.58-1.64,1-1-8.72-21.4ZM59.51,62l5-4.82-8.65-4Z"/><polygon class="a" points="98.81 44.37 91.72 48.69 90.56 46.74 92.47 45.59 84.98 33.3 87.67 49.16 85.94 50.23 72.8 39.99 80.56 52.78 82.63 51.51 83.83 53.47 77.37 57.38 76.22 55.45 78.12 54.28 68.36 38.18 66.42 39.36 65.25 37.4 70.89 33.97 84.42 44.39 81.53 27.52 86.68 24.39 87.84 26.36 85.92 27.49 95.69 43.59 97.63 42.43 98.81 44.37"/><path class="a" d="M106.27,16.92l8.08-1.79.51,2.23-2,.42,2.46,11.43a26,26,0,0,0,1.18,4A3.92,3.92,0,0,0,117.89,35a4.23,4.23,0,0,0,2.61.84,6.6,6.6,0,0,0,1.24-.12,5,5,0,0,0,3.19-2.16,4.47,4.47,0,0,0,.5-2.38,16.49,16.49,0,0,0-.42-3.39l-2.63-12.08-2.2.5L119.69,14l7.38-1.61.51,2.22-2.22.5,2.41,11.23a21.89,21.89,0,0,1,.67,4.46v.17a8.21,8.21,0,0,1-.82,3.16c-1,2-3,3.3-5.72,3.91a14,14,0,0,1-2.72.3,7,7,0,0,1-4.12-1.17c-1.68-1.22-2.85-3.39-3.53-6.46l-2.6-12-2.24.48Z"/><polygon class="a" points="149.62 35.21 149.62 35.21 138.29 17.99 138.41 32.76 140.67 32.71 140.71 34.99 133.32 35.06 133.28 32.78 135.58 32.78 135.41 13.95 133.16 13.96 133.12 11.68 138.45 11.65 150.01 28.9 149.86 13.82 147.59 13.85 147.59 11.56 154.94 11.5 154.97 13.78 152.69 13.8 152.89 35.21 149.62 35.21"/><polygon class="a" points="158.26 33.38 160.48 33.73 163.34 15.12 161.12 14.79 161.48 12.52 169.91 13.85 169.56 16.09 167.32 15.74 164.43 34.32 166.65 34.69 166.31 36.96 157.89 35.63 158.26 33.38"/><polygon class="a" points="173.36 14.2 180.82 16.42 180.16 18.6 178.17 17.99 179.41 34.01 188.96 21.2 186.96 20.63 187.63 18.43 193.54 20.19 192.88 22.38 191.49 21.95 177.79 40.23 175.87 39.64 174.07 16.78 172.7 16.38 173.36 14.2"/><polygon class="a" points="201.03 49.77 186.36 42.65 187.33 40.6 189.35 41.56 197.58 24.66 195.56 23.67 196.53 21.62 210.65 28.45 208.68 32.54 206.46 31.45 207.4 29.44 201.18 26.38 197.72 33.48 201.95 35.55 202.75 33.82 204.8 34.81 202.19 40.3 200.1 39.28 200.93 37.6 196.72 35.55 193.02 43.17 199.84 46.47 200.93 44.29 203.15 45.36 201.03 49.77"/><path class="a" d="M239.52,57.9l1.55-1.75a9.15,9.15,0,0,0-.67-1.81,7.59,7.59,0,0,0-1.07-1.48,2.69,2.69,0,0,0-2-.84h-.17a3.61,3.61,0,0,0-2.39,1.08,3.37,3.37,0,0,0-.94,2.58,8.06,8.06,0,0,0,.29,2.08l.45,1.79a19.46,19.46,0,0,1,.84,5,4.48,4.48,0,0,1,0,.65,5.84,5.84,0,0,1-1.81,3.56,6.47,6.47,0,0,1-4.6,1.9h0l-.53,0a8.15,8.15,0,0,1-5.26-2.55,25.81,25.81,0,0,1-2.25-2.69,14.06,14.06,0,0,1-1.55-2.7l-.1-.27L222.77,59l1.69,1.75-1.59,1.84a19.63,19.63,0,0,0,.7,2.22,4.81,4.81,0,0,0,1,1.54,3.92,3.92,0,0,0,2.75,1.32h.17a3.58,3.58,0,0,0,2.55-1.08,3.87,3.87,0,0,0,1.17-2.12c0-.21.05-.41.05-.67a11.93,11.93,0,0,0-.43-2.73l-.45-1.76a16.8,16.8,0,0,1-.72-4.29,4.83,4.83,0,0,1,.07-.89,5.59,5.59,0,0,1,1.68-3.4,5.9,5.9,0,0,1,4.31-1.8h.35a7.07,7.07,0,0,1,4.8,2.27,21.44,21.44,0,0,1,2,2.38,15.06,15.06,0,0,1,1.56,2.62l.1.23-3.31,3.26Z"/><polygon class="a" points="232.22 73.83 233.6 75.63 248.58 64.3 247.24 62.48 249.05 61.09 254.19 67.87 252.38 69.25 251 67.43 235.98 78.81 237.34 80.63 235.55 82.02 230.41 75.22 232.22 73.83"/><polygon class="a" points="243.28 94.76 239.03 87.34 241.06 86.21 242.17 88.19 258.39 79 255.57 74.05 253.25 75.33 252.04 73.17 256.49 70.66 266.55 88.41 262.08 90.93 260.87 88.76 263.17 87.48 260.33 82.5 244.12 91.67 245.27 93.63 243.28 94.76"/><polygon class="a" points="250.16 111.32 247.23 103.34 249.32 102.55 250.16 104.68 257.66 101.91 265.61 92.21 265.1 90.78 267.25 90.03 270 97.59 267.88 98.38 267.22 96.55 261.61 103.44 270.37 105.18 269.69 103.31 271.85 102.53 274.03 108.48 271.88 109.31 271.34 107.87 259.33 105.55 251.47 108.44 252.26 110.55 250.16 111.32"/><polygon class="a" points="255.37 138.93 254.09 127.67 256.38 127.4 256.81 131.16 274.93 129.14 273.78 125.47 276.11 125.22 278.46 132.59 257.21 134.94 257.64 138.7 255.37 138.93"/><path class="a" d="M265.61,202.76l-2-.81-.08-.09c-5.37-8.85-10.52-14.38-15.32-16.61l-.32-.18,1.41-3.61.2-.41.39.24c4.1,2.57,8.76,8.19,14,16.85l4.36-10.78,3.29,1.33-5.67,14.2Z"/><path class="a" d="M227.1,41.42c-.5-1.66-1.85-3.17-3.94-4.72l-6.76-4.95-1.13,1.51-.25.3,1.81,1.34L205.76,50.11,204.24,49l-.3-.22-1.14,1.55-.24.26,6.88,5.06,1.11-1.55.22-.29L209,52.45l4.53-6.2,1.37,1L214,59l4.25,3.14,1.15-1.53.23-.34-1.54-1.1.54-10.22a8.61,8.61,0,0,0,2.11.27A6.29,6.29,0,0,0,226,46.34a6,6,0,0,0,1.26-3.47,4.86,4.86,0,0,0-.2-1.45M222.64,44a4.82,4.82,0,0,1-3.29,2.23H219a6.34,6.34,0,0,1-3.65-1.41l-.45-.37,5.23-7.15.14.12c1.91,1.38,3,2.57,3.28,3.46a2.27,2.27,0,0,1,.12.67,4.42,4.42,0,0,1-1,2.45"/><path class="a" d="M277.11,145.27a8.5,8.5,0,0,0-5.81-2.46h-.4a7.78,7.78,0,0,0-5.07,1.83,6.73,6.73,0,0,0-2.45,5V150a6.86,6.86,0,0,0,.52,2.67,8.25,8.25,0,0,0,1.15,1.93,13.72,13.72,0,0,1-5.83-2,4.37,4.37,0,0,1-2.2-3.7v-.22a5.6,5.6,0,0,1,.29-1.46,8,8,0,0,1,.5-1.3l1.44-.09.37,0,.1-2v-.42l-3.86-.18-.1.28a17,17,0,0,0-.71,2.46,17.87,17.87,0,0,0-.34,2.45v.47a8.56,8.56,0,0,0,3.4,6.85,15.28,15.28,0,0,0,9.27,3.18h1.26c3.12,0,5.58-.55,7.32-1.73a7.27,7.27,0,0,0,3.22-6.2c0-.14,0-.29,0-.4a7.27,7.27,0,0,0-2.1-5.22m-.21,5.41a3.75,3.75,0,0,1-2.07,3,8.85,8.85,0,0,1-4.53,1.11h-.58a4.1,4.1,0,0,1-3-1.38,4.26,4.26,0,0,1-1.08-3v-.26a3.15,3.15,0,0,1,1.61-2.73,7.14,7.14,0,0,1,3.76-.88h.57a7.28,7.28,0,0,1,4,1.26,3.21,3.21,0,0,1,1.26,2.62v.21Z"/><path class="a" d="M263,162.08l-1.65-.37-.35-.07-2.23,9.91-4-.87.41-1.83.1-.37-1.88-.41L253,168l-1.75,8,1.85.39.38.1.53-2.21,4,.94-.77,3.23,3,.71.73-3.31,14,3.13.44-2.1.06-.17Zm-1.24,10.16,1.44-6.36,7.08,8.24Z"/><path class="a" d="M230.63,241.67,234,239l-11.71-14.61-15.14,12.1,1.52,1.93,11.85-9.46Zm-.47,3.24-7.28-9.06-4.2,3.35.44.58c.5-.41,1.15-.58,2,.4l5.84,7.29-2,1.58-7.25-9.12-4.19,3.4.45.55c.49-.39,1.15-.55,1.95.42l5.82,7.31L219,253.89l1.5,1.85,18.4-14.64-1.52-1.93Z"/><path class="a" d="M115.3,254.28l1.53-4.35-5.25-1.83-.26.72c.59.2,1.11.66.69,1.85l-2.32,6.61-11.38-4,2.82-8.16-5.28-1.81-.23.66c.6.23,1.09.69.68,1.88l-2,5.68a2.66,2.66,0,0,0,1.84,3.61l12.72,4.44-.57,1.64,4.06,1.43,2.15-6.12,3.63,1.26.79-2.3Zm-20.64,4.58c.61.24,1.11.7.7,1.88l-2.07,5.9a2.83,2.83,0,0,0,1.88,3.73l13,4.49,3.79-10.77-17-5.92Zm4.7,3.42L107,265l-2.12,6.17-7.68-2.7Z"/><path class="a" d="M68.87,240.86c-3.85-3.11-8.18-2.73-10.51.13s-1.79,7.22,2,10.31,8.21,2.77,10.5-.15,1.78-7.18-2-10.28m-1.36,7.56c-1.5,1.88-3.91,2.35-5.58,1s-1.73-3.86-.22-5.69a4,4,0,0,1,5.58-1,3.94,3.94,0,0,1,.22,5.66m12.3-16.75-.45.55c.49.44.79,1.05,0,2l-.47.53-4.29-3.52a7.1,7.1,0,0,0-2.85-6.08c-3.32-2.7-7.48-2.25-9.81.62s-1.94,7.07,1.39,9.76a7.17,7.17,0,0,0,6.45,1.53l4.38,3.54L72.3,243l3.33,2.72,8.53-10.51Zm-10,.55c-1.41,1.73-3.52,2.67-5,1.48s-1-3.48.38-5.19,3.5-2.6,5-1.42,1,3.44-.37,5.13m5.84,6.55-3.53-2.89a5.43,5.43,0,0,0,1-1,6,6,0,0,0,.72-1.11l3.53,2.85Z"/><path class="a" d="M151.35,253.63v.72c.63,0,1.24.32,1.24,1.53v4.93h-2.33v-7.18H145v.72c.64,0,1.22.32,1.22,1.53v12.84h-7.52V257.22h5v-2.48H133.25v.74c.61,0,1.26.3,1.26,1.56v11.33a2.66,2.66,0,0,0,2.94,2.78h8.81V280h4V263.21h2.33V280h4.09v-26.4h-5.33Z"/><path class="a" d="M192.6,249.83l-1.95-5.54-5.22,1.84.22.7c.6-.18,1.31-.13,1.73,1l4.11,11.7,4.06-1.43-2.12-6,3.63-1.28-.81-2.32Z"/><polygon class="a" points="179.07 268.38 192.87 263.51 195.39 270.64 199.45 269.22 196.14 259.82 178.23 266.08 179.07 268.38"/><path class="a" d="M185.25,248.71l-5.16,1.83-1-3-5.27,1.88.23.67c.64-.2,1.28-.15,1.69,1.06l.29.82-5.13,1.81.79,2.23,2.33-.82a6,6,0,0,0-.15,4.09c1.15,3.14,4.6,4.8,8.33,3.47s5.34-4.77,4.23-7.89a5.92,5.92,0,0,0-2.65-3.12l2.25-.79Zm-3.89,11.75c-1.58.57-2.93-.59-3.63-2.52s-.3-3.66,1.26-4.21,2.93.62,3.61,2.52.36,3.7-1.23,4.21"/><polygon class="a" points="19.13 189.94 21.21 189.09 20.5 187.25 31.32 188.14 23.87 195.97 23.16 194.09 21.05 194.94 24.1 202.87 26.2 202.07 25.51 200.26 35.41 189.54 40.92 187.4 41.75 189.54 43.8 188.75 40.77 180.84 38.7 181.61 39.54 183.72 33.72 185.94 19.5 184.62 18.83 182.97 16.75 183.76 19.13 189.94"/></svg>